<svg xmlns="http://www.w3.org/2000/svg" viewBox="0 0 128 128" fill="none">
  <rect width="128" height="128" rx="32" fill="#F3ECE1"/>
  <path d="M63.999 20C49.27 20 37.333 31.936 37.333 46.667c0 6.89 2.627 13.166 6.933 17.893 5.494-1.97 12.275-3.227 19.733-3.227 7.459 0 14.24 1.257 19.734 3.227 4.306-4.727 6.933-11.003 6.933-17.893C90.666 31.936 78.729 20 63.999 20Z" fill="#7E9278"/>
  <path d="M64 54.667c-10.665 0-19.912 1.897-27.666 5.333v10.667c7.754 3.435 17.001 5.333 27.666 5.333s19.912-1.898 27.667-5.333V60C83.912 56.564 74.665 54.667 64 54.667Z" fill="#BA6A4D"/>
  <path d="M60 62.667h8V108h-8V62.667Z" fill="#7B533E"/>
</svg>
